<!--
This program is free software: you can redistribute it and/or modify
it under the terms of the GNU General Public License as published by
the Free Software Foundation, either version 3 of the License, or
(at your option) any later version.

This program is distributed in the hope that it will be useful,
but WITHOUT ANY WARRANTY; without even the implied warranty of
MERCHANTABILITY or FITNESS FOR A PARTICULAR PURPOSE.  See the
GNU General Public License for more details.

You should have received a copy of the GNU General Public License
along with this program.  If not, see <https://www.gnu.org/licenses/>.
-->
<svg height="220" viewBox="0 0 410 220" width="410" xmlns="http://www.w3.org/2000/svg">
   <g fill-rule="evenodd"><rect fill="#f00" height="220" ry="30" width="410" x="0" y="0"/>
      <rect fill="#fff" height="50" ry="12" width="50" x="20" y="20"/>
      <rect fill="#fff" height="50" ry="12" width="50" x="80" y="20"/>
      <rect fill="#fff" height="50" ry="12" width="50" x="140" y="20"/>
      <rect fill="#fff" height="50" ry="12" width="50" x="200" y="20"/>
      <rect fill="#fff" height="50" ry="12" width="50" x="260" y="20"/>
      <rect fill="#fff" height="50" ry="12" width="50" x="320" y="20"/>

      <rect fill="#fff" height="50" ry="12" width="50" x="40" y="80"/>
      <rect fill="#fff" height="50" ry="12" width="50" x="100" y="80"/>
      <rect fill="#fff" height="50" ry="12" width="50" x="160" y="80"/>
      <rect fill="#fff" height="50" ry="12" width="50" x="220" y="80"/>
      <rect fill="#fff" height="50" ry="12" width="50" x="280" y="80"/>

      <rect fill="#fff" height="110" ry="12" width="50" x="340" y="20"/>

      <text>
         <tspan fill="#fff" font-family="Futura" font-size="75" font-weight="bold" font-style="italic" x="110" y="200">PUTAIN</tspan>
      </text>
   </g>
</svg>
