<!--
This program is free software: you can redistribute it and/or modify
it under the terms of the GNU General Public License as published by
the Free Software Foundation, either version 3 of the License, or
(at your option) any later version.

This program is distributed in the hope that it will be useful,
but WITHOUT ANY WARRANTY; without even the implied warranty of
MERCHANTABILITY or FITNESS FOR A PARTICULAR PURPOSE.  See the
GNU General Public License for more details.

You should have received a copy of the GNU General Public License
along with this program.  If not, see <https://www.gnu.org/licenses/>.
-->
<svg height="220" viewBox="0 0 410 220" width="410" xmlns="http://www.w3.org/2000/svg"><g fill-rule="evenodd"><path style="fill:#f00" d="m30 0c-16.62 0-30 13.38-30 30v160c0 16.62 13.38 30 30 30h350c16.62 0 30-13.38 30-30v-160c0-16.62-13.38-30-30-30h-350zm2 20h26c6.648 0 12 5.352 12 12v26c0 6.648-5.352 12-12 12h-26c-6.648 0-12-5.352-12-12v-26c0-6.648 5.352-12 12-12zm60 0h26c6.648 0 12 5.352 12 12v26c0 6.648-5.352 12-12 12h-26c-6.648 0-12-5.352-12-12v-26c0-6.648 5.352-12 12-12zm60 0h26c6.648 0 12 5.352 12 12v26c0 6.648-5.352 12-12 12h-26c-6.648 0-12-5.352-12-12v-26c0-6.648 5.352-12 12-12zm60 0h26c6.648 0 12 5.352 12 12v26c0 6.648-5.352 12-12 12h-26c-6.648 0-12-5.352-12-12v-26c0-6.648 5.352-12 12-12zm60 0h26c6.648 0 12 5.352 12 12v26c0 6.648-5.352 12-12 12h-26c-6.648 0-12-5.352-12-12v-26c0-6.648 5.352-12 12-12zm60 0h20 6 20c6.648 0 12 5.352 12 12v86c0 6.648-5.352 12-12 12h-26c-6.648 0-12-5.352-12-12v-48h-8c-6.648 0-12-5.352-12-12v-26c0-6.648 5.352-12 12-12zm-280 60h26c6.648 0 12 5.352 12 12v26c0 6.648-5.352 12-12 12h-26c-6.648 0-12-5.352-12-12v-26c0-6.648 5.352-12 12-12zm60 0h26c6.648 0 12 5.352 12 12v26c0 6.648-5.352 12-12 12h-26c-6.648 0-12-5.352-12-12v-26c0-6.648 5.352-12 12-12zm60 0h26c6.648 0 12 5.352 12 12v26c0 6.648-5.352 12-12 12h-26c-6.648 0-12-5.352-12-12v-26c0-6.648 5.352-12 12-12zm60 0h26c6.648 0 12 5.352 12 12v26c0 6.648-5.352 12-12 12h-26c-6.648 0-12-5.352-12-12v-26c0-6.648 5.352-12 12-12zm60 0h26c6.648 0 12 5.352 12 12v26c0 6.648-5.352 12-12 12h-26c-6.648 0-12-5.352-12-12v-26c0-6.648 5.352-12 12-12zm-171.96 66.387h14.721c4.0772 0 7.1406 0.16992 9.1914 0.51172 2.0508 0.31738 3.834 0.86718 5.3476 1.6484 2.7344 1.3916 4.7725 3.2959 6.1152 5.7129 1.3672 2.417 2.0508 5.3105 2.0508 8.6797 0 3.3447-0.73242 6.4443-2.1973 9.3008-1.4404 2.8564-3.4062 5.0557-5.8965 6.5938-1.4648 0.90332-3.1973 1.5488-5.1992 1.9395-2.002 0.3662-5.1396 0.54883-9.4121 0.54883h-2.1973-3.8086l-3.0039 18.678h-14.244l8.5332-53.613zm47.605 0h14.393l-4.2852 26.916c-0.3418 2.0508-0.57324 3.6621-0.69532 4.834-0.12206 1.1475-0.18164 2.1621-0.18164 3.041 0 2.2949 0.64551 4.0889 1.9395 5.3828 1.2939 1.2695 3.1006 1.9043 5.4199 1.9043 5.5176 0 9.4365-7.3496 11.756-22.047l0.07226-0.51172 3.0762-19.52h14.393l-4.7969 30.432v0.03711c-1.0498 6.5918-2.3682 11.254-3.9551 13.988-2.002 3.4912-4.834 6.1533-8.4961 7.9844-3.6377 1.8311-7.9346 2.7461-12.891 2.7461-6.3965 0-11.523-1.5264-15.381-4.5781-3.8574-3.0762-5.7871-7.1523-5.7871-12.23 0-1.5137 0.14649-3.541 0.43946-6.0801s0.73242-5.6875 1.3184-9.4473l3.6621-22.852zm52.295 0h37.867l-2.0508 12.451h-11.463l-6.5176 41.162h-14.393l6.5176-41.162h-12.012l2.0508-12.451zm53.98 0h17.943l11.391 53.613h-14.539l-2.1602-10.107h-18.75l-5.127 10.107h-15.602l26.844-53.613zm40.979 0h14.613l-8.498 53.613h-14.611l8.4961-53.613zm26.258 0h16.369l11.316 26.477c0.09765 0.21973 0.25684 0.59766 0.47656 1.1348 1.2451 2.9053 2.1113 5.4443 2.5996 7.6172v-1.3535c0-0.97656 0.04883-2.0508 0.14649-3.2227 0.12206-1.1963 0.29199-2.6377 0.51172-4.3223l4.1387-26.33h14.318l-8.459 53.613h-15.746l-12.012-27.283c-0.87891-1.9775-1.5518-3.6123-2.0156-4.9062-0.43946-1.294-0.81739-2.5889-1.1348-3.8828v1.502c0 0.97656-0.04883 2.0146-0.14649 3.1133-0.07323 1.0742-0.21972 2.5137-0.43945 4.3203l-4.0644 27.137h-14.318l8.459-53.613zm-208.67 11.389-1.9395 12.158h1.3535c4.6387 0 7.7764-0.48828 9.4121-1.4648 1.6357-0.97657 2.4551-2.6367 2.4551-4.9805 0-1.9775-0.70897-3.417-2.125-4.3203-1.3916-0.92773-3.5889-1.3926-6.5918-1.3926h-2.5644zm148.79 1.5762c-0.5127 1.4648-0.99023 2.7578-1.4297 3.8809-0.41504 1.0986-0.74415 1.916-0.98828 2.4531l-5.6758 12.268h11.316l-2.4531-12.523c-0.24415-1.2451-0.42871-2.3555-0.55079-3.332-0.12206-0.97657-0.19433-1.8916-0.21875-2.7461z"/></g></svg>
