<!--
This program is free software: you can redistribute it and/or modify
it under the terms of the GNU General Public License as published by
the Free Software Foundation, either version 3 of the License, or
(at your option) any later version.

This program is distributed in the hope that it will be useful,
but WITHOUT ANY WARRANTY; without even the implied warranty of
MERCHANTABILITY or FITNESS FOR A PARTICULAR PURPOSE.  See the
GNU General Public License for more details.

You should have received a copy of the GNU General Public License
along with this program.  If not, see <https://www.gnu.org/licenses/>.
-->
<svg height="220" viewBox="0 0 410 220" width="410" xmlns="http://www.w3.org/2000/svg"><g fill-rule="evenodd"><path style="fill:#fff" d="m30 0c-16.62 0-30 13.38-30 30v160c0 16.62 13.38 30 30 30h350c16.62 0 30-13.38 30-30v-160c0-16.62-13.38-30-30-30h-350zm2 20h26c6.648 0 12 5.352 12 12v26c0 6.648-5.352 12-12 12h-26c-6.648 0-12-5.352-12-12v-26c0-6.648 5.352-12 12-12zm60 0h26c6.648 0 12 5.352 12 12v26c0 6.648-5.352 12-12 12h-26c-6.648 0-12-5.352-12-12v-26c0-6.648 5.352-12 12-12zm60 0h26c6.648 0 12 5.352 12 12v26c0 6.648-5.352 12-12 12h-26c-6.648 0-12-5.352-12-12v-26c0-6.648 5.352-12 12-12zm60 0h26c6.648 0 12 5.352 12 12v26c0 6.648-5.352 12-12 12h-26c-6.648 0-12-5.352-12-12v-26c0-6.648 5.352-12 12-12zm60 0h26c6.648 0 12 5.352 12 12v26c0 6.648-5.352 12-12 12h-26c-6.648 0-12-5.352-12-12v-26c0-6.648 5.352-12 12-12zm60 0h20 6 20c6.648 0 12 5.352 12 12v86c0 6.648-5.352 12-12 12h-26c-6.648 0-12-5.352-12-12v-48h-8c-6.648 0-12-5.352-12-12v-26c0-6.648 5.352-12 12-12zm-280 60h26c6.648 0 12 5.352 12 12v26c0 6.648-5.352 12-12 12h-26c-6.648 0-12-5.352-12-12v-26c0-6.648 5.352-12 12-12zm60 0h26c6.648 0 12 5.352 12 12v26c0 6.648-5.352 12-12 12h-26c-6.648 0-12-5.352-12-12v-26c0-6.648 5.352-12 12-12zm60 0h26c6.648 0 12 5.352 12 12v26c0 6.648-5.352 12-12 12h-26c-6.648 0-12-5.352-12-12v-26c0-6.648 5.352-12 12-12zm60 0h26c6.648 0 12 5.352 12 12v26c0 6.648-5.352 12-12 12h-26c-6.648 0-12-5.352-12-12v-26c0-6.648 5.352-12 12-12zm60 0h26c6.648 0 12 5.352 12 12v26c0 6.648-5.352 12-12 12h-26c-6.648 0-12-5.352-12-12v-26c0-6.648 5.352-12 12-12zm-36.229 68.547h9.8516l-27.613 52.113h-9.8145l27.576-52.113zm89.393 0.69531h13.33v29.773l13.072-16.295h15.822l-14.576 17.395 16.736 19.885h-16.736l-14.318-17.688v17.688h-13.33v-50.758zm-126.05 12.818c1.4893 0 2.7842 0.2207 3.8828 0.66015 1.123 0.43946 2.4522 1.1104 3.9902 2.0137l-4.8691 13.219c-2.002-1.9043-4.0293-2.8555-6.0801-2.8555-1.8555 0-3.4668 0.63477-4.834 1.9043-1.3428 1.2451-2.6357 3.5635-3.8808 6.957v16.041h-13.184v-37.279h13.184v9.0078c0.83007-2.2217 2.2949-4.3828 4.3945-6.4824 2.0996-2.124 4.5644-3.1855 7.3965-3.1855zm78.186 0c1.2695 0 2.4795 0.12304 3.627 0.36718 1.1475 0.21973 2.2705 0.60841 3.3691 1.1699 1.123 0.56152 2.1357 1.332 3.0391 2.3086 0.90332 0.97657 1.623 2.1104 2.1602 3.4043 2.124-2.3926 4.3213-4.1992 6.5918-5.4199 2.2949-1.2207 4.9316-1.8301 7.9102-1.8301 2.9785 0 5.4688 0.59863 7.4707 1.7949 2.0264 1.1963 3.5166 2.9287 4.4688 5.1992 0.97656 2.2461 1.4648 4.9805 1.4648 8.2031v22.742h-13.184v-19.885c0-2.6367-0.43946-4.6025-1.3184-5.8965-0.8545-1.3184-2.2217-1.9785-4.1016-1.9785-1.8311 0-3.334 0.5625-4.5059 1.6856-1.1719 1.0986-2.3418 2.4912-3.5137 4.1758v21.898h-13.186v-19.885c0-2.5146-0.40137-4.457-1.207-5.8242-0.80567-1.3672-2.2344-2.0508-4.2852-2.0508-0.97656 0-1.8789 0.19727-2.709 0.58789-0.80565 0.39063-1.4658 0.83008-1.9785 1.3184s-1.1348 1.208-1.8672 2.1602c-0.73242 0.95215-1.1973 1.5508-1.3926 1.7949v21.898h-13.184v-37.279h13.184v5.3457c1.9775-2.0996 3.9922-3.626 6.043-4.5781s4.418-1.4277 7.1035-1.4277z"/></g></svg>
